<?xml version="1.0" encoding="UTF-8"?>
<svg id="Layer_1" xmlns="http://www.w3.org/2000/svg" version="1.1" viewBox="0 0 584.85 123.23">
  <!-- Generator: Adobe Illustrator 30.6.0, SVG Export Plug-In . SVG Version: 2.1.4 Build 109)  -->
  <defs>
    <style>
      .st0 {
        fill: #fff;
      }

      .st1 {
        fill: #f58020;
      }
    </style>
  </defs>
  <path class="st0" d="M476.74,83.8l.02-1.18h1.58c4.39,0,7.93-2.85,8.03-6.4V20.52c-.09-3.54-3.64-6.41-8.03-6.41h-1.58l-.02-1.18h26.76v1.18h-1.59c-4.29,0-7.8,2.74-8.01,6.19v56.01c.14,3.5,3.68,6.3,8.01,6.3h1.58l.02,1.18h-26.76,0Z"/>
  <path class="st0" d="M15.77,83.8l.02-1.18h1.58c4.39,0,7.93-2.85,8.03-6.4V20.52c-.09-3.54-3.64-6.41-8.03-6.41h-1.57l-.02-1.18h26.76v1.18h-1.59c-4.29,0-7.8,2.74-8.01,6.19v56.01c.14,3.5,3.68,6.3,8.02,6.3h1.58l.02,1.18H15.77Z"/>
  <path class="st0" d="M138.43,76.15c.66,4.09,4.16,6.48,8.06,6.48h1.77v1.18h-24.54v-1.11h1.73c2.4,0,4.65-2.02,4.33-4.57l-6.21-48.61-22.25,43.89s-3.39,7.17-4.2,12.06h-1.16l-28.45-54.87-5.3,47.54c-.27,2.45,1.94,4.57,4.33,4.57h1.73v1.11h-21.91v-1.18h1.77c3.97,0,7.52-2.47,8.09-6.69l9.13-64.64h1.16l31.18,59.98,30.15-59.95h1.12s9.46,64.82,9.46,64.82Z"/>
  <path class="st0" d="M169.58,75.22l8.58-19.8-6.29-.39-9.6,20.77c-2.42,4.81-6.12,6.82-9.26,6.82h-.94v1.18h22.5v-1.16h-.94c-2.76,0-5.86-2.69-4.06-7.41h0ZM230.67,82.62c-3.16,0-6.71-2.02-9.12-6.88l-29.16-64.45h-1.12c-.25,3.07-4.55,12.09-4.55,12.16l-10.77,22.24,5.91.22,9.39-21.94,11.91,29.01,1.36,3.31,1.45,3.54h0l6.45,15.71c1.54,4.52-1.48,7.09-4.18,7.09h-.94v1.17h24.26v-1.18h-.89Z"/>
  <path class="st0" d="M365.77,83.81h-47.98l.02-1.18h1.62c3.81,0,6.67-2.78,6.82-6.27V20.31c0-3.52-2.98-6.19-6.82-6.19h-1.62l-.02-1.18h34.5c4.75-.04,11.14-1.05,13.19-1.85v13.37h-1.28v-1.83c0-3.31-2.33-6-5.92-6.07h-24.49v30.05h20.17c3.28-.07,4.78-2.28,4.78-5.02v-1.5h1.28s0,16.57,0,16.57h-1.28v-1.52c0-2.65-1.42-4.82-4.51-5h-20.45v30.05h18.47c11.35-.16,15.39-5.69,18.74-13.33h1.28l-6.5,16.95h-.01Z"/>
  <path class="st0" d="M467.44,12.94v1.18h-1.98c-3.5,0-6.36,2.61-6.57,5.91v50.36c0,7.61,1.12,15.07,1.12,15.07h-1.13l-61.43-58.28v49.28c.06,3.42,2.98,6.17,6.57,6.17h1.97v1.18s-22.31,0-22.31,0v-1.18h1.98c3.59,0,6.5-2.76,6.57-6.17V25.93c0-8.06-1.13-14.76-1.13-14.76l1.27.06,61.29,57.76V20.02c-.21-3.29-3.07-5.9-6.57-5.9h-1.97v-1.18s22.3,0,22.3,0h.01Z"/>
  <path class="st0" d="M560.77,83.81h-47.98l.02-1.18h1.62c3.81,0,6.67-2.78,6.82-6.27V20.31c0-3.52-2.98-6.19-6.82-6.19h-1.62l-.02-1.18h34.5c4.75-.04,11.14-1.05,13.19-1.85v13.37h-1.28v-1.83c0-3.31-2.33-6-5.92-6.07h-24.49v30.05h20.17c3.28-.07,4.78-2.28,4.78-5.02v-1.5h1.28s0,16.57,0,16.57h-1.28v-1.52c0-2.65-1.42-4.82-4.51-5h-20.45v30.05h18.47c11.35-.16,15.39-5.69,18.74-13.33h1.28l-6.5,16.95h-.01Z"/>
  <rect class="st1" x="262.66" y="94.35" width="32.39" height="6.35"/>
  <path class="st1" d="M318.14,47.99v1.18h-1.61c-3.45,0-5.4,1.66-5.38,4.68,0,2.73-.16,5.5,0,8.2.55,9.17-6.89,14.64-14.21,18.62-5.52,3.02-11.76,4.57-18.05,4.57s-12.43-1.43-18.59-4.4c-10.56-5.11-20.34-11.55-29.81-17.79-5.59-3.69-11.37-7.5-17.27-11.01-10.1-6.01-23.66-5-34.7,2.37l-6.31-.29c19.36-12.86,29.69-13.66,44.11-7.29,6.41,2.83,11.87,7.43,17.5,11.15,2.9,1.91,5.74,3.78,8.59,5.61-2.37-5-3.64-10.84-3.64-17.41,0-22.99,15.43-37.09,38.71-37.09,10.88,0,19.6,2.29,27.57,7.15l2.59,16.68h-1.03c-3.43-13.8-12.73-20.29-29.24-20.29-18.04,0-30.06,12.75-30.06,33.55,0,11.51,3.74,20.6,10.19,26.4,1.79.96,3.59,1.9,5.44,2.79,13.4,6.47,29.05,4.28,39.45-6.55,2.67-2.78,2.25-8.51,1.83-12.06-.42-3.52-1.87-7.61-6.05-7.61h-1.68v-1.18h21.66Z"/>
  <g>
    <path class="st0" d="M319.74,112.29v-15.4h4.31c1.26,0,2.4.29,3.4.86,1,.58,1.78,1.4,2.35,2.47.56,1.07.84,2.29.84,3.66v1.42c0,1.37-.27,2.6-.84,3.66-.56,1.06-1.35,1.89-2.35,2.47-1.01.58-2.18.87-3.49.87h-4.21,0ZM321.04,97.98v13.21h2.92c1.62,0,2.92-.54,3.9-1.61s1.47-2.54,1.47-4.37v-1.35c0-1.77-.48-3.19-1.45-4.26-.97-1.06-2.24-1.6-3.82-1.61h-3.02Z"/>
    <path class="st0" d="M345.47,104.9h-7.21v6.29h8.29v1.1h-9.59v-15.4h9.53v1.1h-8.23v5.82h7.21v1.1h0Z"/>
    <path class="st0" d="M361.04,108.5c0-.85-.3-1.53-.9-2.02-.6-.5-1.7-.97-3.29-1.42-1.59-.45-2.76-.94-3.5-1.47-1.04-.75-1.56-1.73-1.56-2.94s.49-2.14,1.45-2.88c.97-.73,2.21-1.11,3.72-1.11,1.02,0,1.94.2,2.75.59s1.44.94,1.88,1.65c.44.7.67,1.49.67,2.36h-1.31c0-1.05-.36-1.9-1.08-2.54s-1.68-.96-2.9-.96-2.11.26-2.82.79c-.7.53-1.05,1.21-1.05,2.06,0,.78.31,1.42.94,1.92.63.49,1.63.93,3.02,1.31,1.38.37,2.43.77,3.14,1.18.71.41,1.25.89,1.61,1.46.36.56.54,1.23.54,2,0,1.21-.49,2.18-1.45,2.92-.97.73-2.25,1.1-3.84,1.1-1.09,0-2.09-.2-2.99-.58-.91-.39-1.59-.93-2.06-1.63-.47-.7-.7-1.5-.7-2.4h1.3c0,1.09.41,1.94,1.22,2.57.81.63,1.89.94,3.23.94,1.2,0,2.16-.26,2.89-.8.73-.53,1.09-1.23,1.09-2.11h0Z"/>
    <path class="st0" d="M369.78,112.29h-1.3v-15.4h1.3v15.4Z"/>
    <path class="st0" d="M388.12,110.46c-.45.64-1.16,1.14-2.12,1.5-.97.36-2.04.54-3.23.54s-2.28-.29-3.22-.87c-.94-.58-1.66-1.4-2.18-2.45-.51-1.06-.78-2.27-.78-3.64v-1.94c0-2.14.54-3.83,1.62-5.06,1.08-1.24,2.53-1.86,4.35-1.86,1.59,0,2.87.4,3.83,1.21s1.54,1.92,1.73,3.34h-1.3c-.19-1.13-.65-1.99-1.38-2.57-.73-.58-1.68-.87-2.86-.87-1.44,0-2.58.51-3.42,1.54-.84,1.02-1.25,2.47-1.25,4.33v1.82c0,1.17.2,2.21.6,3.11.4.9.97,1.6,1.71,2.09s1.6.74,2.57.74c1.12,0,2.09-.18,2.89-.53.52-.23.91-.51,1.16-.81v-3.98h-4.14v-1.1h5.44v5.48h0Z"/>
    <path class="st0" d="M406.32,112.29h-1.3l-8.86-13.18v13.18h-1.31v-15.4h1.31l8.86,13.2v-13.2h1.29v15.4h0Z"/>
    <path class="st0" d="M414.85,112.29h-1.3v-15.4h1.3v15.4Z"/>
    <path class="st0" d="M433.54,112.29h-1.3l-8.86-13.18v13.18h-1.31v-15.4h1.31l8.86,13.2v-13.2h1.29v15.4h0Z"/>
    <path class="st0" d="M451.62,110.46c-.45.64-1.16,1.14-2.12,1.5-.97.36-2.04.54-3.23.54s-2.28-.29-3.22-.87c-.94-.58-1.66-1.4-2.18-2.45-.51-1.06-.78-2.27-.78-3.64v-1.94c0-2.14.54-3.83,1.62-5.06,1.08-1.24,2.53-1.86,4.35-1.86,1.59,0,2.87.4,3.83,1.21s1.54,1.92,1.73,3.34h-1.3c-.19-1.13-.65-1.99-1.38-2.57-.73-.58-1.68-.87-2.86-.87-1.44,0-2.58.51-3.42,1.54-.84,1.02-1.25,2.47-1.25,4.33v1.82c0,1.17.2,2.21.6,3.11.4.9.97,1.6,1.71,2.09.75.49,1.6.74,2.57.74,1.12,0,2.09-.18,2.89-.53.52-.23.91-.51,1.16-.81v-3.98h-4.14v-1.1h5.44v5.48h0Z"/>
    <path class="st0" d="M466.64,112.29v-15.4h4.31c1.26,0,2.4.29,3.4.86,1,.58,1.78,1.4,2.35,2.47.56,1.07.84,2.29.84,3.66v1.42c0,1.37-.27,2.6-.84,3.66-.56,1.06-1.35,1.89-2.35,2.47-1.01.58-2.18.87-3.49.87h-4.21,0ZM467.94,97.98v13.21h2.92c1.62,0,2.92-.54,3.9-1.61.98-1.08,1.47-2.54,1.47-4.37v-1.35c0-1.77-.48-3.19-1.45-4.26-.97-1.06-2.24-1.6-3.82-1.61h-3.02Z"/>
    <path class="st0" d="M492.37,104.9h-7.21v6.29h8.29v1.1h-9.59v-15.4h9.53v1.1h-8.23v5.82h7.21v1.1h0Z"/>
    <path class="st0" d="M507.95,108.5c0-.85-.3-1.53-.9-2.02-.6-.5-1.7-.97-3.29-1.42-1.59-.45-2.76-.94-3.5-1.47-1.04-.75-1.56-1.73-1.56-2.94s.49-2.14,1.45-2.88c.97-.73,2.21-1.11,3.72-1.11,1.02,0,1.94.2,2.75.59s1.44.94,1.88,1.65c.44.7.67,1.49.67,2.36h-1.31c0-1.05-.36-1.9-1.08-2.54s-1.68-.96-2.9-.96-2.11.26-2.82.79c-.7.53-1.05,1.21-1.05,2.06,0,.78.31,1.42.94,1.92.63.49,1.63.93,3.02,1.31,1.38.37,2.43.77,3.14,1.18s1.25.89,1.61,1.46c.36.56.54,1.23.54,2,0,1.21-.49,2.18-1.45,2.92-.97.73-2.25,1.1-3.84,1.1-1.09,0-2.09-.2-2.99-.58-.91-.39-1.59-.93-2.06-1.63-.47-.7-.7-1.5-.7-2.4h1.3c0,1.09.41,1.94,1.22,2.57.81.63,1.89.94,3.23.94,1.2,0,2.16-.26,2.89-.8.73-.53,1.09-1.23,1.09-2.11h0Z"/>
    <path class="st0" d="M516.69,112.29h-1.3v-15.4h1.3v15.4Z"/>
    <path class="st0" d="M529.66,105.86h-4.47v6.43h-1.31v-15.4h5c1.64,0,2.93.39,3.85,1.19.92.8,1.39,1.91,1.39,3.34,0,.99-.29,1.86-.87,2.61s-1.35,1.28-2.33,1.56l3.85,6.56v.13h-1.39l-3.73-6.43h0ZM525.18,104.76h3.99c1.09,0,1.97-.31,2.64-.94.66-.62.99-1.42.99-2.42,0-1.09-.35-1.93-1.04-2.53-.69-.6-1.66-.9-2.91-.9h-3.67v6.79h0Z"/>
    <path class="st0" d="M549.21,104.9h-7.21v6.29h8.29v1.1h-9.59v-15.4h9.53v1.1h-8.23v5.82h7.21v1.1h0Z"/>
    <path class="st0" d="M564.78,108.5c0-.85-.3-1.53-.9-2.02-.6-.5-1.7-.97-3.29-1.42-1.59-.45-2.76-.94-3.5-1.47-1.04-.75-1.56-1.73-1.56-2.94s.49-2.14,1.45-2.88c.97-.73,2.21-1.11,3.72-1.11,1.02,0,1.94.2,2.75.59s1.44.94,1.88,1.65c.44.7.67,1.49.67,2.36h-1.31c0-1.05-.36-1.9-1.08-2.54s-1.68-.96-2.9-.96-2.11.26-2.82.79c-.7.53-1.05,1.21-1.05,2.06,0,.78.31,1.42.94,1.92.63.49,1.63.93,3.02,1.31,1.38.37,2.43.77,3.14,1.18s1.25.89,1.61,1.46c.36.56.54,1.23.54,2,0,1.21-.49,2.18-1.45,2.92-.97.73-2.25,1.1-3.84,1.1-1.09,0-2.09-.2-2.99-.58-.91-.39-1.59-.93-2.06-1.63-.47-.7-.7-1.5-.7-2.4h1.3c0,1.09.41,1.94,1.22,2.57.81.63,1.89.94,3.23.94,1.2,0,2.16-.26,2.89-.8.73-.53,1.09-1.23,1.09-2.11h0Z"/>
  </g>
</svg>